<?xml version="1.0" encoding="UTF-8"?>
<!DOCTYPE svg PUBLIC "-//W3C//DTD SVG 1.1//EN" "http://www.w3.org/Graphics/SVG/1.1/DTD/svg11.dtd">
<svg xmlns="http://www.w3.org/2000/svg" version="1.1" width="1200px" height="1200px" style="shape-rendering:geometricPrecision; text-rendering:geometricPrecision; image-rendering:optimizeQuality; fill-rule:evenodd; clip-rule:evenodd" xmlns:xlink="http://www.w3.org/1999/xlink">
<g><path style="opacity:1" fill="#fe0000" d="M 1124.5,1199.5 C 1099.5,1199.5 1074.5,1199.5 1049.5,1199.5C 1049.5,1174.5 1049.5,1149.5 1049.5,1124.5C 1024.5,1124.5 999.5,1124.5 974.5,1124.5C 974.5,1099.5 974.5,1074.5 974.5,1049.5C 949.5,1049.5 924.5,1049.5 899.5,1049.5C 899.5,1074.5 899.5,1099.5 899.5,1124.5C 874.5,1124.5 849.5,1124.5 824.5,1124.5C 824.5,1149.5 824.5,1174.5 824.5,1199.5C 774.5,1199.5 724.5,1199.5 674.5,1199.5C 674.5,1149.5 674.5,1099.5 674.5,1049.5C 624.5,1049.5 574.5,1049.5 524.5,1049.5C 524.5,1099.5 524.5,1149.5 524.5,1199.5C 474.5,1199.5 424.5,1199.5 374.5,1199.5C 374.5,1174.5 374.5,1149.5 374.5,1124.5C 349.5,1124.5 324.5,1124.5 299.5,1124.5C 299.5,1099.5 299.5,1074.5 299.5,1049.5C 274.5,1049.5 249.5,1049.5 224.5,1049.5C 224.5,1074.5 224.5,1099.5 224.5,1124.5C 199.5,1124.5 174.5,1124.5 149.5,1124.5C 149.5,1149.5 149.5,1174.5 149.5,1199.5C 124.5,1199.5 99.5,1199.5 74.5,1199.5C 74.5,974.5 74.5,749.5 74.5,524.5C 99.5,524.5 124.5,524.5 149.5,524.5C 149.5,549.5 149.5,574.5 149.5,599.5C 174.5,599.5 199.5,599.5 224.5,599.5C 224.5,624.5 224.5,649.5 224.5,674.5C 274.5,674.5 324.5,674.5 374.5,674.5C 374.5,649.5 374.5,624.5 374.5,599.5C 399.5,599.5 424.5,599.5 449.5,599.5C 449.5,524.5 449.5,449.5 449.5,374.5C 424.5,374.5 399.5,374.5 374.5,374.5C 374.5,349.5 374.5,324.5 374.5,299.5C 324.5,299.5 274.5,299.5 224.5,299.5C 224.5,274.5 224.5,249.5 224.5,224.5C 249.5,224.5 274.5,224.5 299.5,224.5C 299.5,199.5 299.5,174.5 299.5,149.5C 349.5,149.5 399.5,149.5 449.5,149.5C 449.5,124.5 449.5,99.5 449.5,74.5C 549.5,74.5 649.5,74.5 749.5,74.5C 749.5,99.5 749.5,124.5 749.5,149.5C 799.5,149.5 849.5,149.5 899.5,149.5C 899.5,174.5 899.5,199.5 899.5,224.5C 924.5,224.5 949.5,224.5 974.5,224.5C 974.5,249.5 974.5,274.5 974.5,299.5C 999.5,299.5 1024.5,299.5 1049.5,299.5C 1049.5,374.5 1049.5,449.5 1049.5,524.5C 1074.5,524.5 1099.5,524.5 1124.5,524.5C 1124.5,749.5 1124.5,974.5 1124.5,1199.5 Z"/></g>
<g><path style="opacity:1" fill="#fe0000" d="M 224.5,299.5 C 224.5,324.5 224.5,349.5 224.5,374.5C 199.5,374.5 174.5,374.5 149.5,374.5C 149.5,349.5 149.5,324.5 149.5,299.5C 174.5,299.5 199.5,299.5 224.5,299.5 Z"/></g>
<g><path style="opacity:1" fill="#fefffe" d="M 224.5,299.5 C 274.5,299.5 324.5,299.5 374.5,299.5C 374.5,324.5 374.5,349.5 374.5,374.5C 399.5,374.5 424.5,374.5 449.5,374.5C 449.5,449.5 449.5,524.5 449.5,599.5C 424.5,599.5 399.5,599.5 374.5,599.5C 374.5,624.5 374.5,649.5 374.5,674.5C 324.5,674.5 274.5,674.5 224.5,674.5C 224.5,649.5 224.5,624.5 224.5,599.5C 249.5,599.5 274.5,599.5 299.5,599.5C 299.5,549.5 299.5,499.5 299.5,449.5C 249.5,449.5 199.5,449.5 149.5,449.5C 149.5,424.5 149.5,399.5 149.5,374.5C 174.5,374.5 199.5,374.5 224.5,374.5C 224.5,349.5 224.5,324.5 224.5,299.5 Z"/></g>
<g><path style="opacity:1" fill="#fefffe" d="M 674.5,599.5 C 699.5,599.5 724.5,599.5 749.5,599.5C 749.5,549.5 749.5,499.5 749.5,449.5C 699.5,449.5 649.5,449.5 599.5,449.5C 599.5,424.5 599.5,399.5 599.5,374.5C 624.5,374.5 649.5,374.5 674.5,374.5C 674.5,349.5 674.5,324.5 674.5,299.5C 724.5,299.5 774.5,299.5 824.5,299.5C 824.5,324.5 824.5,349.5 824.5,374.5C 849.5,374.5 874.5,374.5 899.5,374.5C 899.5,449.5 899.5,524.5 899.5,599.5C 874.5,599.5 849.5,599.5 824.5,599.5C 824.5,624.5 824.5,649.5 824.5,674.5C 774.5,674.5 724.5,674.5 674.5,674.5C 674.5,649.5 674.5,624.5 674.5,599.5 Z"/></g>
<g><path style="opacity:1" fill="#0000ff" d="M 149.5,449.5 C 199.5,449.5 249.5,449.5 299.5,449.5C 299.5,499.5 299.5,549.5 299.5,599.5C 274.5,599.5 249.5,599.5 224.5,599.5C 199.5,599.5 174.5,599.5 149.5,599.5C 149.5,574.5 149.5,549.5 149.5,524.5C 149.5,499.5 149.5,474.5 149.5,449.5 Z"/></g>
<g><path style="opacity:1" fill="#0000ff" d="M 599.5,449.5 C 649.5,449.5 699.5,449.5 749.5,449.5C 749.5,499.5 749.5,549.5 749.5,599.5C 724.5,599.5 699.5,599.5 674.5,599.5C 649.5,599.5 624.5,599.5 599.5,599.5C 599.5,549.5 599.5,499.5 599.5,449.5 Z"/></g>
</svg>
